:version 1.10
:name ASF
:units
  mass 1
  length 1
  angle deg
:documentation
  ASF file generated by Kaydara
:root
  axis xyz
  order  tx ty tz rx ry rz
  position 0 0 0
  orientation 0 0 0
:bonedata
  begin
    id 1
    name RightUpLegDummy
    direction -0.718183 -0.695806 0.00816078
    length 4.904
    axis 0 0 0 xyz
  end
  begin
    id 2
    name RightUpLeg
    direction 3.53373e-006 -0.995788 0.0916898
    length 17.4976
    axis -3.49089 -0.000906625 0.000286804 xyz
    dof rx ry rz
  end
  begin
    id 3
    name RightLeg
    direction 0.00371092 -0.995096 -0.0988419
    length 16.5821
    axis 3.68512 0.0193738 -0.131023 xyz
    dof rx ry rz
  end
  begin
    id 4
    name RightFoot
    direction 0.00079151 -0.46099 0.887405
    length 3.77069
    axis 4.81691e-005 -0.120479 -0.188788 xyz
    dof rx ry rz
  end
  begin
    id 5
    name RightToes
    direction 0 0 0
    length 0
    axis 0 0 0 xyz
    dof rx ry rz
  end
  begin
    id 6
    name SpineDummy
    direction 8.3039e-015 1 4.57515e-016
    length 4.6813
    axis 0 0 0 xyz
  end
  begin
    id 7
    name Spine
    direction -3.15643e-008 0.999988 0.00495137
    length 10.1015
    axis -0.001389 0.000121418 2.40972e-006 xyz
    dof rx ry rz
  end
  begin
    id 8
    name Spine1
    direction 0 0 0
    length 0
    axis -0.001389 0.000121451 1.30017e-006 xyz
    dof rx ry rz
  end
  begin
    id 9
    name HEadDummy
    direction -1.99912e-008 0.999999 0.00127422
    length 3.43865
    axis -0.001389 0.000121451 1.30017e-006 xyz
  end
  begin
    id 10
    name HEad
    direction 0 0 0
    length 0
    axis 0 0 0 xyz
    dof rx ry rz
  end
  begin
    id 11
    name LeftShoulder1Dummy
    direction 0.998891 -0.0402509 -0.0244456
    length 3.5433
    axis -0.001389 0.000121451 1.30017e-006 xyz
  end
  begin
    id 12
    name LeftShoulder1
    direction 0.99951 -0.000327763 0.0313091
    length 4.05031
    axis -0.001389 0.000121451 1.30017e-006 xyz
    dof rx ry rz
  end
  begin
    id 13
    name LeftArm
    direction 0.998561 -0.00100056 -0.0536182
    length 10.3537
    axis -23.1894 0.134784 0.967509 xyz
    dof rx ry rz
  end
  begin
    id 14
    name LeftForeArm
    direction 0.998903 0.00866432 0.046012
    length 8.70632
    axis -9.91835 -0.06569 -0.177794 xyz
    dof rx ry rz
  end
  begin
    id 15
    name LeftHand
    direction 0 0 0
    length 0
    axis 0 0 0 xyz
    dof rx ry rz
  end
  begin
    id 16
    name RightShoulderDummy
    direction -0.998891 -0.0402509 -0.0244414
    length 3.5433
    axis -0.001389 0.000121451 1.30017e-006 xyz
  end
  begin
    id 17
    name RightShoulder
    direction -0.99951 -0.000327807 0.0313133
    length 4.05031
    axis 0.215806 0.000203643 -0.0068026 xyz
    dof rx ry rz
  end
  begin
    id 18
    name RightArm
    direction -0.998573 -0.000999564 -0.053403
    length 10.3947
    axis -23.2009 -0.134239 -0.964101 xyz
    dof rx ry rz
  end
  begin
    id 19
    name RightForeArm
    direction -0.998898 0.00868028 0.0461306
    length 8.68355
    axis -9.92322 0.0658061 0.178868 xyz
    dof rx ry rz
  end
  begin
    id 20
    name RightHand
    direction 0 0 0
    length 0
    axis 0 0 0 xyz
    dof rx ry rz
  end
  begin
    id 21
    name LeftUpLegDummy
    direction 0.718183 -0.695806 0.00816078
    length 4.904
    axis 0 0 0 xyz
  end
  begin
    id 22
    name LeftUpLeg
    direction -6.81752e-006 -0.995793 0.0916337
    length 17.4976
    axis -3.48766 0.00143442 -0.000524262 xyz
    dof rx ry rz
  end
  begin
    id 23
    name LeftLeg
    direction -0.00601358 -0.995091 -0.0987824
    length 16.5821
    axis 3.68178 -0.00654042 -0.000285133 xyz
    dof rx ry rz
  end
  begin
    id 24
    name LeftFoot
    direction -0.00417578 -0.460984 0.887399
    length 3.77069
    axis 1.87233e-006 4.66016e-005 -8.6538e-006 xyz
    dof rx ry rz
  end
  begin
    id 25
    name LeftToes
    direction 0 0 0
    length 0
    axis 0 0 0 xyz
    dof rx ry rz
  end
:hierarchy
  begin
    root RightUpLegDummy SpineDummy LeftUpLegDummy
    RightUpLegDummy RightUpLeg
    RightUpLeg RightLeg
    RightLeg RightFoot
    RightFoot RightToes
    SpineDummy Spine
    Spine Spine1
    Spine1 HEadDummy LeftShoulder1Dummy RightShoulderDummy
    HEadDummy HEad
    LeftShoulder1Dummy LeftShoulder1
    LeftShoulder1 LeftArm
    LeftArm LeftForeArm
    LeftForeArm LeftHand
    RightShoulderDummy RightShoulder
    RightShoulder RightArm
    RightArm RightForeArm
    RightForeArm RightHand
    LeftUpLegDummy LeftUpLeg
    LeftUpLeg LeftLeg
    LeftLeg LeftFoot
    LeftFoot LeftToes
  end

:SAMPLES-PER-SECOND 30
:FULLY-SPECIFIED
:DEGREES
535
root  33.1982 39.903 8.6987 16.7426 78.8792 19.8351
RightUpLeg  -9.96073 -13.2971 -13.1409
RightLeg  13.9 -1.17413 0.0843577
RightFoot  1.1671 -0.585073 5.40659
RightToes  0.000481921 0.542163 -0.142578
Spine  16.848 -1.49324 8.69135
Spine1  15.0881 -0.227286 -0.469426
HEad  8.56109 -5.24368 0.476739
LeftShoulder1  6.04993 -15.3758 -25.8648
LeftArm  -7.44475 -13.0341 -49.0838
LeftForeArm  174.734 -57.6627 -164.672
LeftHand  -0.25398 0.0180481 5.50724
RightShoulder  3.38097 10.2959 17.9559
RightArm  -14.1249 20.9126 55.1005
RightForeArm  173.333 53.8188 166.532
RightHand  -0.497613 0.94782 -9.24262
LeftUpLeg  -3.54589 18.0388 3.48916
LeftLeg  13.4854 15.2204 0.494592
LeftFoot  -3.74223 0.378388 -5.35981
LeftToes  1.06244e-005 4.65869e-005 -8.65518e-006
536
root  33.3424 39.8901 8.9789 13.909 78.4186 16.5114
RightUpLeg  -10.3858 -13.7206 -12.2048
RightLeg  14.2165 -0.611088 0.477658
RightFoot  0.644377 -0.532401 5.10739
RightToes  0.000481921 0.542163 -0.142578
Spine  16.9433 -1.69232 7.84168
Spine1  15.3498 -1.04922 1.02273
HEad  7.53276 -2.98197 0.543061
LeftShoulder1  6.51433 -15.4058 -28.3513
LeftArm  -5.51907 -4.87829 -49.0165
LeftForeArm  177.777 -54.729 -166.453
LeftHand  -0.25398 0.0180481 5.50724
RightShoulder  3.6274 9.71636 21.1102
RightArm  -11.0931 11.9824 53.9036
RightForeArm  176.541 50.6548 168.16
RightHand  -0.422332 0.973981 -7.84785
LeftUpLeg  -4.06521 19.9731 4.11471
LeftLeg  14.1564 13.6476 1.21794
LeftFoot  -3.94963 0.389936 -5.66913
LeftToes  1.06244e-005 4.65869e-005 -8.65518e-006
537
root  33.3903 39.755 9.265 10.532 78.2842 13.2776
RightUpLeg  -11.1341 -14.2023 -11.0211
RightLeg  16.3457 -0.0322579 0.360214
RightFoot  -0.619316 -0.443071 4.6699
RightToes  0.000481921 0.542163 -0.142578
Spine  17.9334 -2.10193 7.07654
Spine1  15.7484 -1.99607 2.40744
HEad  6.41104 -0.779552 0.622544
LeftShoulder1  6.66713 -15.2028 -29.5687
LeftArm  -4.76797 -0.721401 -49.0004
LeftForeArm  -178.691 -53.209 -167.424
LeftHand  -0.25398 0.0180481 5.50724
RightShoulder  3.86198 9.28147 24.04
RightArm  -8.76311 4.52886 52.8433
RightForeArm  178.762 48.6555 169.095
RightHand  -0.428382 1.88173 -7.04018
LeftUpLeg  -5.08104 23.5133 4.74913
LeftLeg  16.5575 10.0723 2.68308
LeftFoot  -4.78324 0.375816 -6.06126
LeftToes  1.06244e-005 4.65869e-005 -8.65518e-006
538
root  33.3401 39.4897 9.54228 6.00177 78.6693 9.63123
RightUpLeg  -11.7999 -14.61 -9.78247
RightLeg  19.8948 0.186804 -0.0503147
RightFoot  -2.52341 -0.346887 4.27473
RightToes  0.000481921 0.542163 -0.142578
Spine  19.9247 -2.61853 6.15522
Spine1  16.1252 -3.29707 4.55111
HEad  5.26012 1.43257 -0.0685371
LeftShoulder1  6.5085 -14.6468 -29.7897
LeftArm  -5.232 -0.689369 -48.5487
LeftForeArm  -177.52 -53.223 -167.498
LeftHand  -0.25398 0.0180481 5.50724
RightShoulder  4.00468 9.14012 25.577
RightArm  -7.34398 -0.671265 52.1472
RightForeArm  179.128 48.037 169.344
RightHand  -0.464965 2.78231 -6.86323
LeftUpLeg  -6.24928 23.9294 5.97713
LeftLeg  20.6207 8.81728 4.09944
LeftFoot  -6.23444 0.323733 -6.41461
LeftToes  1.06244e-005 4.65869e-005 -8.65518e-006
539
root  33.2432 39.097 9.79159 0.607117 79.5923 5.53119
RightUpLeg  -12.3558 -14.8627 -8.88835
RightLeg  24.3496 -0.273698 -0.373667
RightFoot  -4.85222 -0.261434 4.02938
RightToes  0.000481921 0.542163 -0.142578
Spine  22.3327 -3.14384 5.25944
Spine1  16.2191 -4.77365 7.19271
HEad  4.48093 3.35899 -1.48447
LeftShoulder1  6.18933 -14.0845 -29.1137
LeftArm  -6.74885 -3.52957 -48.0494
LeftForeArm  -179.185 -54.4241 -166.82
LeftHand  -0.25398 0.0180481 5.50724
RightShoulder  4.11122 9.44139 25.672
RightArm  -6.91147 -3.56733 51.2303
RightForeArm  178.417 47.9776 169.317
RightHand  -0.485106 3.07679 -6.93011
LeftUpLeg  -7.56421 21.2763 7.5743
LeftLeg  25.8129 9.65437 5.38481
LeftFoot  -8.0239 0.237099 -6.51223
LeftToes  1.06244e-005 4.65869e-005 -8.65518e-006
540
root  33.1623 38.6043 10.0169 -5.64178 80.9784 0.496826
RightUpLeg  -13.0639 -15.8556 -8.19921
RightLeg  29.2066 -0.630772 -0.621665
RightFoot  -7.32311 -0.18124 3.73571
RightToes  0.000481921 0.542163 -0.142578
Spine  24.347 -3.55872 4.64954
Spine1  15.906 -6.07879 9.82994
HEad  3.72704 4.67132 -2.4995
LeftShoulder1  5.90621 -13.905 -27.8234
LeftArm  -8.74995 -7.82704 -48.0659
LeftForeArm  178.948 -56.2166 -165.789
LeftHand  -0.25398 0.0180481 5.50724
RightShoulder  4.22506 9.94117 25.3178
RightArm  -7.61175 -4.45269 49.4945
RightForeArm  177.357 47.6974 169.347
RightHand  -0.490817 3.00797 -7.06018
LeftUpLeg  -9.28774 18.5603 8.95719
LeftLeg  31.2215 9.7577 6.66666
LeftFoot  -9.79167 0.147279 -6.56674
LeftToes  1.06244e-005 4.65869e-005 -8.65518e-006
